<?xml version="1.0" encoding="UTF-8"?>
<!-- Generated by Pixelmator Pro 3.6.3 -->
<svg width="12846" height="2480" viewBox="0 0 12846 2480" xmlns="http://www.w3.org/2000/svg">
    <g id="Layer-1">
        <path id="Trazado" fill="#000000" stroke="none" d="M 12996.738281 6027.402344 L -111.956528 6027.402344 L -111.956528 3210.010986 L 12996.738281 3210.010986 L 12996.738281 6027.402344 Z"/>
        <path id="path1" fill="#000000" stroke="none" d="M 15853.261719 6027.402344 L 13251.087891 6027.402344 L 13251.087891 3131.75 L 15853.261719 3131.75 L 15853.261719 6027.402344 Z"/>
        <path id="path2" fill="#ffffff" stroke="none" d="M 13957.424805 5468.98877 L 13957.424805 5182.166016 L 13818.389648 5182.166016 C 13617.930664 5182.166016 13455.433594 5344.674316 13455.433594 5545.132813 L 13455.433594 5831.955566 L 13594.458008 5831.955566 C 13794.916992 5831.955566 13957.424805 5669.447266 13957.424805 5468.98877 Z"/>
        <path id="path3" fill="#ffffff" stroke="none" d="M 14520.643555 5469.007813 L 14520.643555 4538.981445 L 14381.608398 4538.981445 C 14181.149414 4538.981445 14018.651367 4701.489258 14018.651367 4901.94873 L 14018.651367 5831.955566 L 14157.675781 5831.955566 C 14358.134766 5831.955566 14520.643555 5669.467773 14520.643555 5469.007813 Z"/>
        <path id="path4" fill="#ffffff" stroke="none" d="M 15083.861328 5468.98877 L 15083.861328 3977.776855 L 14944.827148 3977.776855 C 14744.367188 3977.776855 14581.869141 4140.285156 14581.869141 4340.743652 L 14581.869141 5831.955566 L 14720.894531 5831.955566 C 14921.353516 5831.955566 15083.861328 5669.447266 15083.861328 5468.98877 Z"/>
        <path id="path5" fill="#ffffff" stroke="none" d="M 15647.079102 5410.119141 L 15647.079102 3412.327148 L 15508.045898 3412.327148 C 15307.585938 3412.327148 15145.087891 3601.192383 15145.087891 3834.163574 L 15145.087891 5831.955566 L 15284.112305 5831.955566 C 15484.571289 5831.955566 15647.079102 5643.09082 15647.079102 5410.119141 Z"/>
        <path id="path6" fill="#000000" stroke="none" d="M 13957.424805 2077.684082 L 13957.424805 1790.861694 L 13818.389648 1790.861694 C 13617.930664 1790.861694 13455.433594 1953.369873 13455.433594 2153.828613 L 13455.433594 2440.651123 L 13594.458008 2440.651123 C 13794.916992 2440.651123 13957.424805 2278.143555 13957.424805 2077.684082 Z"/>
        <path id="path7" fill="#000000" stroke="none" d="M 14520.643555 2077.704102 L 14520.643555 1147.677246 L 14381.608398 1147.677246 C 14181.149414 1147.677246 14018.651367 1310.184937 14018.651367 1510.644165 L 14018.651367 2440.651123 L 14157.675781 2440.651123 C 14358.134766 2440.651123 14520.643555 2278.16333 14520.643555 2077.704102 Z"/>
        <path id="path8" fill="#000000" stroke="none" d="M 15083.861328 2077.684082 L 15083.861328 586.472534 L 14944.827148 586.472534 C 14744.367188 586.472534 14581.869141 748.980347 14581.869141 949.439697 L 14581.869141 2440.651123 L 14720.894531 2440.651123 C 14921.353516 2440.651123 15083.861328 2278.143555 15083.861328 2077.684082 Z"/>
        <path id="path9" fill="#000000" stroke="none" d="M 15647.079102 2018.815308 L 15647.079102 21.023193 L 15508.045898 21.023193 C 15307.585938 21.023193 15145.087891 209.888184 15145.087891 442.859253 L 15145.087891 2440.651123 L 15284.112305 2440.651123 C 15484.571289 2440.651123 15647.079102 2251.786377 15647.079102 2018.815308 Z"/>
        <linearGradient id="linearGradient1" x1="13205.894849" y1="-1448.017446" x2="13781.785448" y2="-2023.908046" gradientUnits="userSpaceOnUse">
            <stop offset="0" stop-color="#ffa726" stop-opacity="1"/>
            <stop offset="1" stop-color="#ff5722" stop-opacity="1"/>
        </linearGradient>
        <path id="path10" fill="url(#linearGradient1)" stroke="none" d="M 13957.424805 -1561.446289 L 13957.424805 -1848.268555 L 13818.389648 -1848.268555 C 13617.930664 -1848.268555 13455.433594 -1685.760742 13455.433594 -1485.301758 L 13455.433594 -1198.479004 L 13594.458008 -1198.479004 C 13794.916992 -1198.479004 13957.424805 -1360.987061 13957.424805 -1561.446289 Z"/>
        <linearGradient id="linearGradient2" x1="13447.520843" y1="-1769.609734" x2="14345.00373" y2="-2667.09262" gradientUnits="userSpaceOnUse">
            <stop offset="0" stop-color="#ffa726" stop-opacity="1"/>
            <stop offset="1" stop-color="#ff5722" stop-opacity="1"/>
        </linearGradient>
        <path id="path11" fill="url(#linearGradient2)" stroke="none" d="M 14520.643555 -1561.42627 L 14520.643555 -2491.453613 L 14381.608398 -2491.453613 C 14181.149414 -2491.453613 14018.651367 -2328.945313 14018.651367 -2128.486328 L 14018.651367 -1198.479004 L 14157.675781 -1198.479004 C 14358.134766 -1198.479004 14520.643555 -1360.967285 14520.643555 -1561.42627 Z"/>
        <linearGradient id="linearGradient3" x1="13730.13679" y1="-2050.212068" x2="14908.222011" y2="-3228.297288" gradientUnits="userSpaceOnUse">
            <stop offset="0" stop-color="#ffa726" stop-opacity="1"/>
            <stop offset="1" stop-color="#ff5722" stop-opacity="1"/>
        </linearGradient>
        <path id="path12" fill="url(#linearGradient3)" stroke="none" d="M 15083.861328 -1561.446289 L 15083.861328 -3052.658203 L 14944.827148 -3052.658203 C 14744.367188 -3052.658203 14581.869141 -2890.149902 14581.869141 -2689.690918 L 14581.869141 -1198.479004 L 14720.894531 -1198.479004 C 14921.353516 -1198.479004 15083.861328 -1360.987061 15083.861328 -1561.446289 Z"/>
        <linearGradient id="linearGradient4" x1="14010.630414" y1="-2332.936726" x2="15471.440292" y2="-3793.746604" gradientUnits="userSpaceOnUse">
            <stop offset="0" stop-color="#ffa726" stop-opacity="1"/>
            <stop offset="1" stop-color="#ff5722" stop-opacity="1"/>
        </linearGradient>
        <path id="path13" fill="url(#linearGradient4)" stroke="none" d="M 15647.079102 -1620.31543 L 15647.079102 -3618.107422 L 15508.045898 -3618.107422 C 15307.585938 -3618.107422 15145.087891 -3429.242188 15145.087891 -3196.270996 L 15145.087891 -1198.479004 L 15284.112305 -1198.479004 C 15484.571289 -1198.479004 15647.079102 -1387.344238 15647.079102 -1620.31543 Z"/>
        <path id="path14" fill="#ffffff" stroke="none" d="M 535.685608 5468.98877 L 535.685608 5182.166016 L 396.651184 5182.166016 C 196.192154 5182.166016 33.69405 5344.674316 33.69405 5545.132813 L 33.69405 5831.955566 L 172.718552 5831.955566 C 373.177551 5831.955566 535.685608 5669.447266 535.685608 5468.98877 Z"/>
        <path id="path15" fill="#ffffff" stroke="none" d="M 1098.903931 5469.007813 L 1098.903931 4538.981445 L 959.869446 4538.981445 C 759.4104 4538.981445 596.912292 4701.489258 596.912292 4901.94873 L 596.912292 5831.955566 L 735.936829 5831.955566 C 936.395813 5831.955566 1098.903931 5669.467773 1098.903931 5469.007813 Z"/>
        <path id="path16" fill="#ffffff" stroke="none" d="M 1662.122192 5468.98877 L 1662.122192 3977.776855 L 1523.087646 3977.776855 C 1322.628662 3977.776855 1160.130615 4140.285156 1160.130615 4340.743652 L 1160.130615 5831.955566 L 1299.155151 5831.955566 C 1499.614136 5831.955566 1662.122192 5669.447266 1662.122192 5468.98877 Z"/>
        <path id="path17" fill="#ffffff" stroke="none" d="M 2225.340576 5410.119141 L 2225.340576 3412.327148 L 2086.305908 3412.327148 C 1885.846924 3412.327148 1723.348877 3601.192383 1723.348877 3834.163574 L 1723.348877 5831.955566 L 1862.373413 5831.955566 C 2062.832275 5831.955566 2225.340576 5643.09082 2225.340576 5410.119141 Z"/>
        <g id="Agrupar">
            <path id="path18" fill="#ffffff" stroke="none" d="M 2584.069824 5829.775391 L 2584.069824 5629.791992 L 2790.547607 5590.834961 L 2790.547607 4658.445313 L 2577.579834 4658.445313 L 2577.579834 4424.697266 L 2790.547607 4424.697266 L 2790.547607 4305.226563 C 2790.547607 4136.409668 2841.190674 4006.124023 2942.484619 3914.349609 C 3043.774414 3822.595215 3185.746338 3776.698975 3368.42041 3776.698975 C 3431.608154 3776.698975 3494.160889 3783.415039 3556.066895 3796.826172 C 3617.956543 3810.258301 3689.599609 3829.514648 3770.983887 3854.614258 L 3721.638916 4115.631348 C 3667.948486 4097.451172 3614.506104 4082.517578 3561.262939 4070.82959 C 3508.02002 4059.143066 3453.682373 4053.298096 3398.291016 4053.298096 C 3301.32251 4053.298096 3230.322266 4074.300293 3185.319092 4116.280273 C 3140.29541 4158.282715 3117.793701 4221.262695 3117.793701 4305.226563 L 3117.793701 4424.697266 L 3947.595215 4424.697266 L 3947.595215 5590.834961 L 4154.068848 5629.791992 L 4154.068848 5829.775391 L 3425.561523 5829.775391 L 3425.561523 5629.791992 L 3620.349121 5590.834961 L 3620.349121 4658.445313 L 3117.793701 4658.445313 L 3117.793701 5590.834961 L 3312.581299 5629.791992 L 3312.581299 5829.775391 L 2584.069824 5829.775391 Z"/>
            <path id="path19" fill="#ffffff" stroke="none" d="M 4289.127441 5829.775391 L 4289.127441 5629.791992 L 4483.915039 5590.834961 L 4483.915039 4664.935547 L 4278.739258 4625.978516 L 4278.739258 4424.697266 L 4785.188965 4424.697266 L 4802.071289 4628.574707 C 4848.819824 4555.855469 4907.035156 4499.365234 4976.733398 4459.108398 C 5046.411133 4418.854004 5125.418945 4398.724609 5213.724609 4398.724609 C 5358.296875 4398.724609 5470.845703 4443.101074 5551.358887 4531.830078 C 5631.872559 4620.581055 5672.127441 4759.308105 5672.127441 4948.029297 L 5672.127441 5590.834961 L 5866.918945 5629.791992 L 5866.918945 5829.775391 L 5161.779785 5829.775391 L 5161.779785 5629.791992 L 5344.881348 5590.834961 L 5344.881348 4950.629395 C 5344.881348 4844.142578 5323.657227 4768.62207 5281.25 4724.021484 C 5238.82666 4679.445313 5175.618652 4657.143555 5091.658691 4657.143555 C 5028.450684 4657.143555 4973.262695 4671.226074 4926.086426 4699.351074 C 4878.890137 4727.492188 4840.584473 4766.672852 4811.161133 4816.87207 L 4811.161133 5590.834961 L 4989.066406 5629.791992 L 4989.066406 5829.775391 L 4289.127441 5829.775391 Z"/>
            <path id="path20" fill="#ffffff" stroke="none" d="M 6495.438477 5854.450195 C 6375.968262 5854.450195 6282.894043 5820.90918 6216.239258 5753.807129 C 6149.564453 5686.725586 6116.247559 5579.592773 6116.247559 5432.404297 L 6116.247559 4658.445313 L 5911.071777 4658.445313 L 5911.071777 4424.697266 L 6116.247559 4424.697266 L 6116.247559 4083.166504 L 6442.195801 4083.166504 L 6442.195801 4424.697266 L 6720.092773 4424.697266 L 6720.092773 4658.445313 L 6442.195801 4658.445313 L 6442.195801 5432.404297 C 6442.195801 5492.141602 6454.532715 5535.643066 6479.203125 5562.913574 C 6503.87793 5590.184082 6537.418457 5603.819336 6579.846191 5603.819336 C 6604.073242 5603.819336 6631.140137 5601.670898 6661.006836 5597.329102 C 6690.877441 5593.003906 6714.900879 5588.682617 6733.081055 5584.34082 L 6766.841797 5814.191406 C 6728.739258 5825.454102 6685.233398 5834.97168 6636.336426 5842.759766 C 6587.414551 5850.551758 6540.441895 5854.450195 6495.438477 5854.450195 Z"/>
            <path id="path21" fill="#ffffff" stroke="none" d="M 7382.376953 5857.045898 C 7239.530273 5857.045898 7128.275391 5820.258301 7048.636719 5746.666016 C 6968.978027 5673.090332 6929.166504 5571.800293 6929.166504 5442.796387 C 6929.166504 5354.490723 6953.393555 5277.020996 7001.888184 5210.346191 C 7050.362305 5143.691406 7121.358398 5091.526855 7214.855957 5053.864258 C 7308.353516 5016.205566 7421.76123 4997.37793 7555.086426 4997.37793 L 7769.356445 4997.37793 L 7769.356445 4879.205566 C 7769.356445 4804.758789 7747.058105 4745.449219 7702.478027 4701.295898 C 7657.881836 4657.143555 7593.172363 4635.068848 7508.337402 4635.068848 C 7459.842773 4635.068848 7416.992188 4640.912109 7379.776855 4652.598145 C 7342.54541 4664.288574 7309.208008 4680.967285 7279.785156 4702.594238 L 7249.918457 4892.189453 L 7009.680176 4892.189453 L 7007.080078 4545.465332 C 7076.334473 4500.461914 7153.377441 4464.750488 7238.232422 4438.332031 C 7323.067383 4411.93457 7417.435547 4398.724609 7521.325684 4398.724609 C 7699.658203 4398.724609 7840.128418 4440.50293 7942.720703 4524.040039 C 8045.308594 4607.594727 8096.602539 4727.268555 8096.602539 4883.099609 L 8096.602539 5502.529297 C 8096.602539 5521.584961 8096.805664 5540.188477 8097.249512 5558.368652 C 8097.676758 5576.548828 8098.750977 5594.306152 8100.496582 5611.611328 L 8243.342773 5629.791992 L 8243.342773 5829.775391 L 7816.10498 5829.775391 C 7807.442383 5799.481934 7799.42627 5770.038574 7792.081543 5741.469727 C 7784.716797 5712.901367 7779.296875 5684.333008 7775.850586 5655.764648 C 7729.101563 5714.646973 7672.611328 5762.897461 7606.384277 5800.556152 C 7540.152832 5838.214844 7465.486816 5857.045898 7382.376953 5857.045898 Z M 7456.396484 5603.819336 C 7522.17627 5603.819336 7583.658691 5588.458984 7640.795898 5557.72168 C 7697.933105 5527.000488 7740.787598 5488.24707 7769.356445 5441.494141 L 7769.356445 5206.452148 L 7551.192383 5206.452148 C 7453.353027 5206.452148 7379.553223 5229.177734 7329.78125 5274.628418 C 7279.98877 5320.079102 7255.114746 5373.118652 7255.114746 5433.706055 C 7255.114746 5488.24707 7272.42041 5530.247559 7307.055664 5559.666504 C 7341.670898 5589.109863 7391.467285 5603.819336 7456.396484 5603.819336 Z"/>
            <path id="path22" fill="#ffffff" stroke="none" d="M 8992.630859 5857.045898 C 8892.195313 5857.045898 8798.490234 5847.304688 8711.486328 5827.82666 C 8624.479492 5808.348145 8537.251953 5779.576172 8449.821289 5741.469727 L 8445.922852 5370.075195 L 8680.96875 5370.075195 L 8730.314453 5572.654785 C 8767.529297 5589.109863 8805.838867 5601.874512 8845.243164 5610.960449 C 8884.626953 5620.050781 8928.556641 5624.595703 8977.050781 5624.595703 C 9070.548828 5624.595703 9136.551758 5608.161133 9175.085938 5575.250977 C 9213.594727 5542.361328 9232.873047 5501.679199 9232.873047 5453.18457 C 9232.873047 5406.435547 9212.744141 5366.400879 9172.485352 5333.063477 C 9132.230469 5299.746094 9055.391602 5270.954102 8941.988281 5246.707031 C 8774.023438 5210.346191 8650.451172 5157.327148 8571.236328 5087.628906 C 8492.024414 5017.951172 8452.416992 4927.25293 8452.416992 4815.574219 C 8452.416992 4738.531738 8472.969727 4668.833496 8514.099609 4606.500488 C 8555.208008 4544.166992 8615.816406 4494.171387 8695.902344 4456.512695 C 8775.96875 4418.854004 8874.458984 4400.022461 8991.333008 4400.022461 C 9097.819336 4400.022461 9192.390625 4411.061523 9275.077148 4433.138184 C 9357.739258 4455.214844 9428.087891 4484.432129 9486.095703 4520.792969 L 9493.888672 4877.907227 L 9261.442383 4877.907227 L 9221.183594 4692.206055 C 9194.339844 4673.175293 9163.175781 4658.445313 9127.685547 4648.053223 C 9092.175781 4637.665039 9051.493164 4632.470703 9005.619141 4632.470703 C 8933.748047 4632.470703 8877.058594 4648.276855 8835.501953 4679.868652 C 8793.945313 4711.480957 8773.168945 4751.088867 8773.168945 4798.691895 C 8773.168945 4826.410156 8779.866211 4851.507813 8793.298828 4874.009277 C 8806.709961 4896.531738 8832.682617 4917.088379 8871.211914 4935.691895 C 8909.724609 4954.319824 8966.214844 4972.276367 9040.677734 4989.585938 C 9223.335938 5032.013672 9354.069336 5087.425293 9432.853516 5155.805176 C 9511.621094 5224.205078 9551.025391 5314.679688 9551.025391 5427.211914 C 9551.025391 5552.749023 9505.130859 5655.764648 9413.375 5736.277832 C 9321.602539 5816.791504 9181.355469 5857.045898 8992.630859 5857.045898 Z"/>
            <path id="path23" fill="#ffffff" stroke="none" d="M 10269.152344 5854.450195 C 10149.682617 5854.450195 10056.608398 5820.90918 9989.953125 5753.807129 C 9923.279297 5686.725586 9889.961914 5579.592773 9889.961914 5432.404297 L 9889.961914 4658.445313 L 9684.786133 4658.445313 L 9684.786133 4424.697266 L 9889.961914 4424.697266 L 9889.961914 4083.166504 L 10215.910156 4083.166504 L 10215.910156 4424.697266 L 10493.806641 4424.697266 L 10493.806641 4658.445313 L 10215.910156 4658.445313 L 10215.910156 5432.404297 C 10215.910156 5492.141602 10228.24707 5535.643066 10252.917969 5562.913574 C 10277.591797 5590.184082 10311.132813 5603.819336 10353.560547 5603.819336 C 10377.787109 5603.819336 10404.854492 5601.670898 10434.720703 5597.329102 C 10464.591797 5593.003906 10488.615234 5588.682617 10506.794922 5584.34082 L 10540.555664 5814.191406 C 10502.453125 5825.454102 10458.947266 5834.97168 10410.050781 5842.759766 C 10361.128906 5850.551758 10314.15625 5854.450195 10269.152344 5854.450195 Z"/>
            <path id="path24" fill="#ffffff" stroke="none" d="M 10700.285156 5829.775391 L 10700.285156 5629.791992 L 10895.072266 5590.834961 L 10895.072266 4664.935547 L 10688.594727 4625.978516 L 10688.594727 4424.697266 L 11222.318359 4424.697266 L 11222.318359 5590.834961 L 11415.808594 5629.791992 L 11415.808594 5829.775391 L 10700.285156 5829.775391 Z M 10882.083984 4106.541016 L 10882.083984 3803.969482 L 11222.318359 3803.969482 L 11222.318359 4106.541016 L 10882.083984 4106.541016 Z"/>
            <path id="path25" fill="#ffffff" stroke="none" d="M 12213.146484 5857.045898 C 12081.542969 5857.045898 11967.488281 5826.976074 11870.967773 5766.79541 C 11774.425781 5706.630859 11699.979492 5623.521484 11647.607422 5517.462891 C 11595.21875 5411.424316 11569.042969 5289.134277 11569.042969 5150.613281 L 11569.042969 5105.162109 C 11569.042969 4969.25293 11595.015625 4848.037109 11646.960938 4741.554688 C 11698.901367 4635.068848 11773.124023 4551.310547 11869.669922 4490.275391 C 11966.19043 4429.242188 12080.245117 4398.724609 12211.848633 4398.724609 C 12332.169922 4398.724609 12436.930664 4418.001465 12526.106445 4456.512695 C 12615.262695 4495.043945 12688.431641 4542.869141 12745.568359 4600.006348 L 12746.867188 4975.299805 L 12497.538086 4975.299805 L 12449.491211 4727.268555 C 12425.244141 4702.170898 12394.50293 4682.041504 12357.291992 4666.884766 C 12320.056641 4651.748047 12279.374023 4644.15918 12235.22168 4644.15918 C 12163.354492 4644.15918 12102.116211 4663.637695 12051.472656 4702.594238 C 12000.826172 4741.554688 11962.296875 4795.444824 11935.896484 4864.272461 C 11909.476563 4933.095703 11896.289063 5013.40625 11896.289063 5105.162109 L 11896.289063 5150.613281 C 11896.289063 5249.302734 11909.700195 5332.412109 11936.547852 5399.941406 C 11963.371094 5467.466797 12000.826172 5518.561523 12048.873047 5553.176758 C 12096.923828 5587.812012 12152.111328 5605.117188 12214.445313 5605.117188 C 12289.762695 5605.117188 12351.000977 5584.788574 12398.197266 5544.086426 C 12445.373047 5503.404297 12476.314453 5447.138184 12491.043945 5375.26709 L 12774.137695 5375.26709 L 12778.035156 5383.05957 C 12767.647461 5474.832031 12740.580078 5556.423828 12696.871094 5627.842773 C 12653.145508 5699.266113 12591.6875 5755.329102 12512.47168 5796.010742 C 12433.259766 5836.692871 12333.467773 5857.045898 12213.146484 5857.045898 Z"/>
        </g>
        <g id="g1">
            <path id="path26" fill="#000000" stroke="none" d="M 2584.069824 2438.471191 L 2584.069824 2238.487305 L 2790.547607 2199.530762 L 2790.547607 1267.141357 L 2577.579834 1267.141357 L 2577.579834 1033.393066 L 2790.547607 1033.393066 L 2790.547607 913.922852 C 2790.547607 745.105713 2841.190674 614.819702 2942.484619 523.045288 C 3043.774414 431.291016 3185.746338 385.394775 3368.42041 385.394775 C 3431.608154 385.394775 3494.160889 392.110596 3556.066895 405.521973 C 3617.956543 418.953857 3689.599609 438.210449 3770.983887 463.310181 L 3721.638916 724.327271 C 3667.948486 706.146973 3614.506104 691.213623 3561.262939 679.525391 C 3508.02002 667.839233 3453.682373 661.994141 3398.291016 661.994141 C 3301.32251 661.994141 3230.322266 682.996338 3185.319092 724.976318 C 3140.29541 766.978638 3117.793701 829.95874 3117.793701 913.922852 L 3117.793701 1033.393066 L 3947.595215 1033.393066 L 3947.595215 2199.530762 L 4154.068848 2238.487305 L 4154.068848 2438.471191 L 3425.561523 2438.471191 L 3425.561523 2238.487305 L 3620.349121 2199.530762 L 3620.349121 1267.141357 L 3117.793701 1267.141357 L 3117.793701 2199.530762 L 3312.581299 2238.487305 L 3312.581299 2438.471191 L 2584.069824 2438.471191 Z"/>
            <path id="path27" fill="#000000" stroke="none" d="M 4289.127441 2438.471191 L 4289.127441 2238.487305 L 4483.915039 2199.530762 L 4483.915039 1273.63147 L 4278.739258 1234.674805 L 4278.739258 1033.393066 L 4785.188965 1033.393066 L 4802.071289 1237.270752 C 4848.819824 1164.551514 4907.035156 1108.061401 4976.733398 1067.804688 C 5046.411133 1027.549927 5125.418945 1007.420532 5213.724609 1007.420532 C 5358.296875 1007.420532 5470.845703 1051.797119 5551.358887 1140.526001 C 5631.872559 1229.277222 5672.127441 1368.004028 5672.127441 1556.724731 L 5672.127441 2199.530762 L 5866.918945 2238.487305 L 5866.918945 2438.471191 L 5161.779785 2438.471191 L 5161.779785 2238.487305 L 5344.881348 2199.530762 L 5344.881348 1559.324829 C 5344.881348 1452.838867 5323.657227 1377.317993 5281.25 1332.717529 C 5238.82666 1288.141602 5175.618652 1265.839355 5091.658691 1265.839355 C 5028.450684 1265.839355 4973.262695 1279.922119 4926.086426 1308.047119 C 4878.890137 1336.188477 4840.584473 1375.368896 4811.161133 1425.568359 L 4811.161133 2199.530762 L 4989.066406 2238.487305 L 4989.066406 2438.471191 L 4289.127441 2438.471191 Z"/>
            <path id="path28" fill="#000000" stroke="none" d="M 6495.438477 2463.145508 C 6375.968262 2463.145508 6282.894043 2429.604736 6216.239258 2362.502686 C 6149.564453 2295.420898 6116.247559 2188.288086 6116.247559 2041.099731 L 6116.247559 1267.141357 L 5911.071777 1267.141357 L 5911.071777 1033.393066 L 6116.247559 1033.393066 L 6116.247559 691.862671 L 6442.195801 691.862671 L 6442.195801 1033.393066 L 6720.092773 1033.393066 L 6720.092773 1267.141357 L 6442.195801 1267.141357 L 6442.195801 2041.099731 C 6442.195801 2100.836914 6454.532715 2144.338623 6479.203125 2171.609131 C 6503.87793 2198.879639 6537.418457 2212.514893 6579.846191 2212.514893 C 6604.073242 2212.514893 6631.140137 2210.366455 6661.006836 2206.024902 C 6690.877441 2201.699463 6714.900879 2197.378174 6733.081055 2193.036621 L 6766.841797 2422.886719 C 6728.739258 2434.149902 6685.233398 2443.667236 6636.336426 2451.455322 C 6587.414551 2459.247559 6540.441895 2463.145508 6495.438477 2463.145508 Z"/>
            <path id="path29" fill="#000000" stroke="none" d="M 7382.376953 2465.741699 C 7239.530273 2465.741699 7128.275391 2428.953613 7048.636719 2355.361572 C 6968.978027 2281.785645 6929.166504 2180.49585 6929.166504 2051.491943 C 6929.166504 1963.186279 6953.393555 1885.716431 7001.888184 1819.041626 C 7050.362305 1752.387207 7121.358398 1700.222412 7214.855957 1662.559692 C 7308.353516 1624.901001 7421.76123 1606.07373 7555.086426 1606.07373 L 7769.356445 1606.07373 L 7769.356445 1487.901489 C 7769.356445 1413.454834 7747.058105 1354.14502 7702.478027 1309.992188 C 7657.881836 1265.839355 7593.172363 1243.764893 7508.337402 1243.764893 C 7459.842773 1243.764893 7416.992188 1249.608032 7379.776855 1261.294189 C 7342.54541 1272.984497 7309.208008 1289.66333 7279.785156 1311.290161 L 7249.918457 1500.885742 L 7009.680176 1500.885742 L 7007.080078 1154.161255 C 7076.334473 1109.157959 7153.377441 1073.446289 7238.232422 1047.02832 C 7323.067383 1020.630615 7417.435547 1007.420532 7521.325684 1007.420532 C 7699.658203 1007.420532 7840.128418 1049.199097 7942.720703 1132.73584 C 8045.308594 1216.291016 8096.602539 1335.9646 8096.602539 1491.795532 L 8096.602539 2111.225098 C 8096.602539 2130.280273 8096.805664 2148.883789 8097.249512 2167.063965 C 8097.676758 2185.244385 8098.750977 2203.001465 8100.496582 2220.307129 L 8243.342773 2238.487305 L 8243.342773 2438.471191 L 7816.10498 2438.471191 C 7807.442383 2408.177246 7799.42627 2378.733887 7792.081543 2350.165527 C 7784.716797 2321.596924 7779.296875 2293.02832 7775.850586 2264.459961 C 7729.101563 2323.342529 7672.611328 2371.592773 7606.384277 2409.251465 C 7540.152832 2446.910156 7465.486816 2465.741699 7382.376953 2465.741699 Z M 7456.396484 2212.514893 C 7522.17627 2212.514893 7583.658691 2197.154297 7640.795898 2166.416992 C 7697.933105 2135.696045 7740.787598 2096.942871 7769.356445 2050.189941 L 7769.356445 1815.147583 L 7551.192383 1815.147583 C 7453.353027 1815.147583 7379.553223 1837.873047 7329.78125 1883.323853 C 7279.98877 1928.774658 7255.114746 1981.814209 7255.114746 2042.401855 C 7255.114746 2096.942871 7272.42041 2138.943115 7307.055664 2168.362061 C 7341.670898 2197.80542 7391.467285 2212.514893 7456.396484 2212.514893 Z"/>
            <path id="path30" fill="#000000" stroke="none" d="M 8992.630859 2465.741699 C 8892.195313 2465.741699 8798.490234 2456.000488 8711.486328 2436.521973 C 8624.479492 2417.043701 8537.251953 2388.271729 8449.821289 2350.165527 L 8445.922852 1978.77063 L 8680.96875 1978.77063 L 8730.314453 2181.350342 C 8767.529297 2197.80542 8805.838867 2210.569824 8845.243164 2219.656006 C 8884.626953 2228.746094 8928.556641 2233.29126 8977.050781 2233.29126 C 9070.548828 2233.29126 9136.551758 2216.856445 9175.085938 2183.946289 C 9213.594727 2151.056641 9232.873047 2110.374512 9232.873047 2061.880127 C 9232.873047 2015.131348 9212.744141 1975.096313 9172.485352 1941.758911 C 9132.230469 1908.441895 9055.391602 1879.649536 8941.988281 1855.402344 C 8774.023438 1819.041626 8650.451172 1766.022461 8571.236328 1696.324341 C 8492.024414 1626.646606 8452.416992 1535.948364 8452.416992 1424.270264 C 8452.416992 1347.227661 8472.969727 1277.529541 8514.099609 1215.196411 C 8555.208008 1152.863281 8615.816406 1102.86731 8695.902344 1065.208618 C 8775.96875 1027.549927 8874.458984 1008.718506 8991.333008 1008.718506 C 9097.819336 1008.718506 9192.390625 1019.757813 9275.077148 1041.834229 C 9357.739258 1063.910645 9428.087891 1093.128174 9486.095703 1129.48877 L 9493.888672 1486.603516 L 9261.442383 1486.603516 L 9221.183594 1300.901978 C 9194.339844 1281.871216 9163.175781 1267.141357 9127.685547 1256.749146 C 9092.175781 1246.360962 9051.493164 1241.16687 9005.619141 1241.16687 C 8933.748047 1241.16687 8877.058594 1256.9729 8835.501953 1288.564697 C 8793.945313 1320.17688 8773.168945 1359.784668 8773.168945 1407.387939 C 8773.168945 1435.106079 8779.866211 1460.203735 8793.298828 1482.705322 C 8806.709961 1505.227295 8832.682617 1525.783936 8871.211914 1544.387451 C 8909.724609 1563.015381 8966.214844 1580.971924 9040.677734 1598.281494 C 9223.335938 1640.709106 9354.069336 1696.12085 9432.853516 1764.50061 C 9511.621094 1832.900635 9551.025391 1923.375122 9551.025391 2035.907715 C 9551.025391 2161.444824 9505.130859 2264.459961 9413.375 2344.973389 C 9321.602539 2425.486816 9181.355469 2465.741699 8992.630859 2465.741699 Z"/>
            <path id="path31" fill="#000000" stroke="none" d="M 10269.152344 2463.145508 C 10149.682617 2463.145508 10056.608398 2429.604736 9989.953125 2362.502686 C 9923.279297 2295.420898 9889.961914 2188.288086 9889.961914 2041.099731 L 9889.961914 1267.141357 L 9684.786133 1267.141357 L 9684.786133 1033.393066 L 9889.961914 1033.393066 L 9889.961914 691.862671 L 10215.910156 691.862671 L 10215.910156 1033.393066 L 10493.806641 1033.393066 L 10493.806641 1267.141357 L 10215.910156 1267.141357 L 10215.910156 2041.099731 C 10215.910156 2100.836914 10228.24707 2144.338623 10252.917969 2171.609131 C 10277.591797 2198.879639 10311.132813 2212.514893 10353.560547 2212.514893 C 10377.787109 2212.514893 10404.854492 2210.366455 10434.720703 2206.024902 C 10464.591797 2201.699463 10488.615234 2197.378174 10506.794922 2193.036621 L 10540.555664 2422.886719 C 10502.453125 2434.149902 10458.947266 2443.667236 10410.050781 2451.455322 C 10361.128906 2459.247559 10314.15625 2463.145508 10269.152344 2463.145508 Z"/>
            <path id="path32" fill="#000000" stroke="none" d="M 10700.285156 2438.471191 L 10700.285156 2238.487305 L 10895.072266 2199.530762 L 10895.072266 1273.63147 L 10688.594727 1234.674805 L 10688.594727 1033.393066 L 11222.318359 1033.393066 L 11222.318359 2199.530762 L 11415.808594 2238.487305 L 11415.808594 2438.471191 L 10700.285156 2438.471191 Z M 10882.083984 715.237061 L 10882.083984 412.665283 L 11222.318359 412.665283 L 11222.318359 715.237061 L 10882.083984 715.237061 Z"/>
            <path id="path33" fill="#000000" stroke="none" d="M 12213.146484 2465.741699 C 12081.542969 2465.741699 11967.488281 2435.671631 11870.967773 2375.490967 C 11774.425781 2315.32666 11699.979492 2232.217041 11647.607422 2126.158203 C 11595.21875 2020.119873 11569.042969 1897.829834 11569.042969 1759.308594 L 11569.042969 1713.857666 C 11569.042969 1577.94873 11595.015625 1456.73291 11646.960938 1350.250977 C 11698.901367 1243.764893 11773.124023 1160.006348 11869.669922 1098.971191 C 11966.19043 1037.93811 12080.245117 1007.420532 12211.848633 1007.420532 C 12332.169922 1007.420532 12436.930664 1026.69751 12526.106445 1065.208618 C 12615.262695 1103.740112 12688.431641 1151.565186 12745.568359 1208.702271 L 12746.867188 1583.995239 L 12497.538086 1583.995239 L 12449.491211 1335.9646 C 12425.244141 1310.866943 12394.50293 1290.737549 12357.291992 1275.580566 C 12320.056641 1260.443848 12279.374023 1252.855103 12235.22168 1252.855103 C 12163.354492 1252.855103 12102.116211 1272.333496 12051.472656 1311.290161 C 12000.826172 1350.250977 11962.296875 1404.140869 11935.896484 1472.968262 C 11909.476563 1541.791504 11896.289063 1622.101563 11896.289063 1713.857666 L 11896.289063 1759.308594 C 11896.289063 1857.998291 11909.700195 1941.10791 11936.547852 2008.637207 C 11963.371094 2076.162354 12000.826172 2127.256836 12048.873047 2161.87207 C 12096.923828 2196.507324 12152.111328 2213.812988 12214.445313 2213.812988 C 12289.762695 2213.812988 12351.000977 2193.484131 12398.197266 2152.781738 C 12445.373047 2112.099854 12476.314453 2055.833496 12491.043945 1983.962646 L 12774.137695 1983.962646 L 12778.035156 1991.754883 C 12767.647461 2083.527344 12740.580078 2165.119141 12696.871094 2236.53833 C 12653.145508 2307.96167 12591.6875 2364.024414 12512.47168 2404.706543 C 12433.259766 2445.388428 12333.467773 2465.741699 12213.146484 2465.741699 Z"/>
        </g>
        <linearGradient id="linearGradient5" x1="-215.844281" y1="-1448.017446" x2="360.046318" y2="-2023.908046" gradientUnits="userSpaceOnUse">
            <stop offset="0" stop-color="#ffa726" stop-opacity="1"/>
            <stop offset="1" stop-color="#ff5722" stop-opacity="1"/>
        </linearGradient>
        <path id="path34" fill="url(#linearGradient5)" stroke="none" d="M 535.685608 -1561.446289 L 535.685608 -1848.268555 L 396.651184 -1848.268555 C 196.192154 -1848.268555 33.69405 -1685.760742 33.69405 -1485.301758 L 33.69405 -1198.479004 L 172.718552 -1198.479004 C 373.177551 -1198.479004 535.685608 -1360.987061 535.685608 -1561.446289 Z"/>
        <linearGradient id="linearGradient6" x1="25.781713" y1="-1769.609734" x2="923.264599" y2="-2667.09262" gradientUnits="userSpaceOnUse">
            <stop offset="0" stop-color="#ffa726" stop-opacity="1"/>
            <stop offset="1" stop-color="#ff5722" stop-opacity="1"/>
        </linearGradient>
        <path id="path35" fill="url(#linearGradient6)" stroke="none" d="M 1098.903931 -1561.42627 L 1098.903931 -2491.453613 L 959.869446 -2491.453613 C 759.4104 -2491.453613 596.912292 -2328.945313 596.912292 -2128.486328 L 596.912292 -1198.479004 L 735.936829 -1198.479004 C 936.395813 -1198.479004 1098.903931 -1360.967285 1098.903931 -1561.42627 Z"/>
        <linearGradient id="linearGradient7" x1="308.39766" y1="-2050.212068" x2="1486.482881" y2="-3228.297288" gradientUnits="userSpaceOnUse">
            <stop offset="0" stop-color="#ffa726" stop-opacity="1"/>
            <stop offset="1" stop-color="#ff5722" stop-opacity="1"/>
        </linearGradient>
        <path id="path36" fill="url(#linearGradient7)" stroke="none" d="M 1662.122192 -1561.446289 L 1662.122192 -3052.658203 L 1523.087646 -3052.658203 C 1322.628662 -3052.658203 1160.130615 -2890.149902 1160.130615 -2689.690918 L 1160.130615 -1198.479004 L 1299.155151 -1198.479004 C 1499.614136 -1198.479004 1662.122192 -1360.987061 1662.122192 -1561.446289 Z"/>
        <linearGradient id="linearGradient8" x1="588.891283" y1="-2332.936726" x2="2049.701162" y2="-3793.746604" gradientUnits="userSpaceOnUse">
            <stop offset="0" stop-color="#ffa726" stop-opacity="1"/>
            <stop offset="1" stop-color="#ff5722" stop-opacity="1"/>
        </linearGradient>
        <path id="path37" fill="url(#linearGradient8)" stroke="none" d="M 2225.340576 -1620.31543 L 2225.340576 -3618.107422 L 2086.305908 -3618.107422 C 1885.846924 -3618.107422 1723.348877 -3429.242188 1723.348877 -3196.270996 L 1723.348877 -1198.479004 L 1862.373413 -1198.479004 C 2062.832275 -1198.479004 2225.340576 -1387.344238 2225.340576 -1620.31543 Z"/>
        <g id="g2">
            <path id="path38" fill="#000000" stroke="none" d="M 2584.069824 -1200.659424 L 2584.069824 -1400.643311 L 2790.547607 -1439.599854 L 2790.547607 -2371.989258 L 2577.579834 -2371.989258 L 2577.579834 -2605.737793 L 2790.547607 -2605.737793 L 2790.547607 -2725.208008 C 2790.547607 -2894.024902 2841.190674 -3024.310547 2942.484619 -3116.084961 C 3043.774414 -3207.839355 3185.746338 -3253.73584 3368.42041 -3253.73584 C 3431.608154 -3253.73584 3494.160889 -3247.02002 3556.066895 -3233.608398 C 3617.956543 -3220.176758 3689.599609 -3200.919922 3770.983887 -3175.820313 L 3721.638916 -2914.803223 C 3667.948486 -2932.983887 3614.506104 -2947.916992 3561.262939 -2959.605469 C 3508.02002 -2971.291504 3453.682373 -2977.136719 3398.291016 -2977.136719 C 3301.32251 -2977.136719 3230.322266 -2956.134277 3185.319092 -2914.154297 C 3140.29541 -2872.151855 3117.793701 -2809.171875 3117.793701 -2725.208008 L 3117.793701 -2605.737793 L 3947.595215 -2605.737793 L 3947.595215 -1439.599854 L 4154.068848 -1400.643311 L 4154.068848 -1200.659424 L 3425.561523 -1200.659424 L 3425.561523 -1400.643311 L 3620.349121 -1439.599854 L 3620.349121 -2371.989258 L 3117.793701 -2371.989258 L 3117.793701 -1439.599854 L 3312.581299 -1400.643311 L 3312.581299 -1200.659424 L 2584.069824 -1200.659424 Z"/>
            <path id="path39" fill="#000000" stroke="none" d="M 4289.127441 -1200.659424 L 4289.127441 -1400.643311 L 4483.915039 -1439.599854 L 4483.915039 -2365.499023 L 4278.739258 -2404.456055 L 4278.739258 -2605.737793 L 4785.188965 -2605.737793 L 4802.071289 -2401.859863 C 4848.819824 -2474.579102 4907.035156 -2531.069336 4976.733398 -2571.326172 C 5046.411133 -2611.580566 5125.418945 -2631.709961 5213.724609 -2631.709961 C 5358.296875 -2631.709961 5470.845703 -2587.333496 5551.358887 -2498.604492 C 5631.872559 -2409.853516 5672.127441 -2271.126465 5672.127441 -2082.405762 L 5672.127441 -1439.599854 L 5866.918945 -1400.643311 L 5866.918945 -1200.659424 L 5161.779785 -1200.659424 L 5161.779785 -1400.643311 L 5344.881348 -1439.599854 L 5344.881348 -2079.805664 C 5344.881348 -2186.291992 5323.657227 -2261.8125 5281.25 -2306.413086 C 5238.82666 -2350.989258 5175.618652 -2373.291504 5091.658691 -2373.291504 C 5028.450684 -2373.291504 4973.262695 -2359.208496 4926.086426 -2331.083496 C 4878.890137 -2302.942383 4840.584473 -2263.761719 4811.161133 -2213.5625 L 4811.161133 -1439.599854 L 4989.066406 -1400.643311 L 4989.066406 -1200.659424 L 4289.127441 -1200.659424 Z"/>
            <path id="path40" fill="#000000" stroke="none" d="M 6495.438477 -1175.985107 C 6375.968262 -1175.985107 6282.894043 -1209.525879 6216.239258 -1276.62793 C 6149.564453 -1343.709717 6116.247559 -1450.842529 6116.247559 -1598.031006 L 6116.247559 -2371.989258 L 5911.071777 -2371.989258 L 5911.071777 -2605.737793 L 6116.247559 -2605.737793 L 6116.247559 -2947.268066 L 6442.195801 -2947.268066 L 6442.195801 -2605.737793 L 6720.092773 -2605.737793 L 6720.092773 -2371.989258 L 6442.195801 -2371.989258 L 6442.195801 -1598.031006 C 6442.195801 -1538.293701 6454.532715 -1494.791992 6479.203125 -1467.521484 C 6503.87793 -1440.250977 6537.418457 -1426.615723 6579.846191 -1426.615723 C 6604.073242 -1426.615723 6631.140137 -1428.76416 6661.006836 -1433.105713 C 6690.877441 -1437.431152 6714.900879 -1441.752441 6733.081055 -1446.093994 L 6766.841797 -1216.243896 C 6728.739258 -1204.980713 6685.233398 -1195.463379 6636.336426 -1187.675293 C 6587.414551 -1179.883057 6540.441895 -1175.985107 6495.438477 -1175.985107 Z"/>
            <path id="path41" fill="#000000" stroke="none" d="M 7382.376953 -1173.388916 C 7239.530273 -1173.388916 7128.275391 -1210.177002 7048.636719 -1283.769043 C 6968.978027 -1357.344971 6929.166504 -1458.634766 6929.166504 -1587.638672 C 6929.166504 -1675.944336 6953.393555 -1753.414063 7001.888184 -1820.088867 C 7050.362305 -1886.743652 7121.358398 -1938.908203 7214.855957 -1976.570801 C 7308.353516 -2014.229492 7421.76123 -2033.057129 7555.086426 -2033.057129 L 7769.356445 -2033.057129 L 7769.356445 -2151.229004 C 7769.356445 -2225.675781 7747.058105 -2284.98584 7702.478027 -2329.138672 C 7657.881836 -2373.291504 7593.172363 -2395.365723 7508.337402 -2395.365723 C 7459.842773 -2395.365723 7416.992188 -2389.522461 7379.776855 -2377.836426 C 7342.54541 -2366.145996 7309.208008 -2349.467285 7279.785156 -2327.840332 L 7249.918457 -2138.245117 L 7009.680176 -2138.245117 L 7007.080078 -2484.969238 C 7076.334473 -2529.972656 7153.377441 -2565.68457 7238.232422 -2592.102539 C 7323.067383 -2618.5 7417.435547 -2631.709961 7521.325684 -2631.709961 C 7699.658203 -2631.709961 7840.128418 -2589.931641 7942.720703 -2506.39502 C 8045.308594 -2422.839844 8096.602539 -2303.166016 8096.602539 -2147.334961 L 8096.602539 -1527.905518 C 8096.602539 -1508.850342 8096.805664 -1490.246826 8097.249512 -1472.06665 C 8097.676758 -1453.88623 8098.750977 -1436.12915 8100.496582 -1418.823486 L 8243.342773 -1400.643311 L 8243.342773 -1200.659424 L 7816.10498 -1200.659424 C 7807.442383 -1230.953369 7799.42627 -1260.396729 7792.081543 -1288.965088 C 7784.716797 -1317.533691 7779.296875 -1346.102295 7775.850586 -1374.670654 C 7729.101563 -1315.788086 7672.611328 -1267.537842 7606.384277 -1229.87915 C 7540.152832 -1192.220459 7465.486816 -1173.388916 7382.376953 -1173.388916 Z M 7456.396484 -1426.615723 C 7522.17627 -1426.615723 7583.658691 -1441.976318 7640.795898 -1472.713623 C 7697.933105 -1503.43457 7740.787598 -1542.187744 7769.356445 -1588.940674 L 7769.356445 -1823.98291 L 7551.192383 -1823.98291 C 7453.353027 -1823.98291 7379.553223 -1801.257813 7329.78125 -1755.806641 C 7279.98877 -1710.355957 7255.114746 -1657.316406 7255.114746 -1596.72876 C 7255.114746 -1542.187744 7272.42041 -1500.1875 7307.055664 -1470.768555 C 7341.670898 -1441.325195 7391.467285 -1426.615723 7456.396484 -1426.615723 Z"/>
            <path id="path42" fill="#000000" stroke="none" d="M 8992.630859 -1173.388916 C 8892.195313 -1173.388916 8798.490234 -1183.130127 8711.486328 -1202.608643 C 8624.479492 -1222.086914 8537.251953 -1250.858887 8449.821289 -1288.965088 L 8445.922852 -1660.359863 L 8680.96875 -1660.359863 L 8730.314453 -1457.780273 C 8767.529297 -1441.325195 8805.838867 -1428.560791 8845.243164 -1419.474609 C 8884.626953 -1410.384521 8928.556641 -1405.839355 8977.050781 -1405.839355 C 9070.548828 -1405.839355 9136.551758 -1422.27417 9175.085938 -1455.184326 C 9213.594727 -1488.073975 9232.873047 -1528.756104 9232.873047 -1577.250488 C 9232.873047 -1623.999512 9212.744141 -1664.03418 9172.485352 -1697.371582 C 9132.230469 -1730.688965 9055.391602 -1759.480957 8941.988281 -1783.728516 C 8774.023438 -1820.088867 8650.451172 -1873.108398 8571.236328 -1942.806152 C 8492.024414 -2012.483887 8452.416992 -2103.182129 8452.416992 -2214.860352 C 8452.416992 -2291.902832 8472.969727 -2361.601074 8514.099609 -2423.934082 C 8555.208008 -2486.267578 8615.816406 -2536.263184 8695.902344 -2573.921875 C 8775.96875 -2611.580566 8874.458984 -2630.412109 8991.333008 -2630.412109 C 9097.819336 -2630.412109 9192.390625 -2619.373047 9275.077148 -2597.296387 C 9357.739258 -2575.220215 9428.087891 -2546.002441 9486.095703 -2509.64209 L 9493.888672 -2152.527344 L 9261.442383 -2152.527344 L 9221.183594 -2338.228516 C 9194.339844 -2357.259277 9163.175781 -2371.989258 9127.685547 -2382.381348 C 9092.175781 -2392.769531 9051.493164 -2397.963867 9005.619141 -2397.963867 C 8933.748047 -2397.963867 8877.058594 -2382.157715 8835.501953 -2350.565918 C 8793.945313 -2318.953613 8773.168945 -2279.346191 8773.168945 -2231.742676 C 8773.168945 -2204.024414 8779.866211 -2178.926758 8793.298828 -2156.425293 C 8806.709961 -2133.90332 8832.682617 -2113.34668 8871.211914 -2094.743164 C 8909.724609 -2076.115234 8966.214844 -2058.158691 9040.677734 -2040.849121 C 9223.335938 -1998.421387 9354.069336 -1943.009766 9432.853516 -1874.629883 C 9511.621094 -1806.22998 9551.025391 -1715.755371 9551.025391 -1603.2229 C 9551.025391 -1477.685791 9505.130859 -1374.670654 9413.375 -1294.157227 C 9321.602539 -1213.643799 9181.355469 -1173.388916 8992.630859 -1173.388916 Z"/>
            <path id="path43" fill="#000000" stroke="none" d="M 10269.152344 -1175.985107 C 10149.682617 -1175.985107 10056.608398 -1209.525879 9989.953125 -1276.62793 C 9923.279297 -1343.709717 9889.961914 -1450.842529 9889.961914 -1598.031006 L 9889.961914 -2371.989258 L 9684.786133 -2371.989258 L 9684.786133 -2605.737793 L 9889.961914 -2605.737793 L 9889.961914 -2947.268066 L 10215.910156 -2947.268066 L 10215.910156 -2605.737793 L 10493.806641 -2605.737793 L 10493.806641 -2371.989258 L 10215.910156 -2371.989258 L 10215.910156 -1598.031006 C 10215.910156 -1538.293701 10228.24707 -1494.791992 10252.917969 -1467.521484 C 10277.591797 -1440.250977 10311.132813 -1426.615723 10353.560547 -1426.615723 C 10377.787109 -1426.615723 10404.854492 -1428.76416 10434.720703 -1433.105713 C 10464.591797 -1437.431152 10488.615234 -1441.752441 10506.794922 -1446.093994 L 10540.555664 -1216.243896 C 10502.453125 -1204.980713 10458.947266 -1195.463379 10410.050781 -1187.675293 C 10361.128906 -1179.883057 10314.15625 -1175.985107 10269.152344 -1175.985107 Z"/>
            <path id="path44" fill="#000000" stroke="none" d="M 10700.285156 -1200.659424 L 10700.285156 -1400.643311 L 10895.072266 -1439.599854 L 10895.072266 -2365.499023 L 10688.594727 -2404.456055 L 10688.594727 -2605.737793 L 11222.318359 -2605.737793 L 11222.318359 -1439.599854 L 11415.808594 -1400.643311 L 11415.808594 -1200.659424 L 10700.285156 -1200.659424 Z M 10882.083984 -2923.893555 L 10882.083984 -3226.465332 L 11222.318359 -3226.465332 L 11222.318359 -2923.893555 L 10882.083984 -2923.893555 Z"/>
            <path id="path45" fill="#000000" stroke="none" d="M 12213.146484 -1173.388916 C 12081.542969 -1173.388916 11967.488281 -1203.458984 11870.967773 -1263.639648 C 11774.425781 -1323.803955 11699.979492 -1406.913574 11647.607422 -1512.972412 C 11595.21875 -1619.010742 11569.042969 -1741.300781 11569.042969 -1879.822266 L 11569.042969 -1925.272949 C 11569.042969 -2061.182129 11595.015625 -2182.397949 11646.960938 -2288.879883 C 11698.901367 -2395.365723 11773.124023 -2479.124512 11869.669922 -2540.159668 C 11966.19043 -2601.192383 12080.245117 -2631.709961 12211.848633 -2631.709961 C 12332.169922 -2631.709961 12436.930664 -2612.433105 12526.106445 -2573.921875 C 12615.262695 -2535.390625 12688.431641 -2487.56543 12745.568359 -2430.428223 L 12746.867188 -2055.135254 L 12497.538086 -2055.135254 L 12449.491211 -2303.166016 C 12425.244141 -2328.263672 12394.50293 -2348.393066 12357.291992 -2363.550293 C 12320.056641 -2378.687012 12279.374023 -2386.275391 12235.22168 -2386.275391 C 12163.354492 -2386.275391 12102.116211 -2366.797363 12051.472656 -2327.840332 C 12000.826172 -2288.879883 11962.296875 -2234.989746 11935.896484 -2166.162598 C 11909.476563 -2097.339355 11896.289063 -2017.029297 11896.289063 -1925.272949 L 11896.289063 -1879.822266 C 11896.289063 -1781.132324 11909.700195 -1698.022949 11936.547852 -1630.493652 C 11963.371094 -1562.968262 12000.826172 -1511.873779 12048.873047 -1477.258545 C 12096.923828 -1442.623291 12152.111328 -1425.317627 12214.445313 -1425.317627 C 12289.762695 -1425.317627 12351.000977 -1445.646484 12398.197266 -1486.348877 C 12445.373047 -1527.030762 12476.314453 -1583.297119 12491.043945 -1655.167969 L 12774.137695 -1655.167969 L 12778.035156 -1647.375977 C 12767.647461 -1555.603271 12740.580078 -1474.011475 12696.871094 -1402.592285 C 12653.145508 -1331.168945 12591.6875 -1275.106201 12512.47168 -1234.424072 C 12433.259766 -1193.742188 12333.467773 -1173.388916 12213.146484 -1173.388916 Z"/>
        </g>
    </g>
    <clipPath id="clipPath1">
        <path d="M -11.723413 3.73684 L 2306.986424 3.73684 L 2306.986424 2477.027332 L -11.723413 2477.027332 Z"/>
    </clipPath>
    <g id="Agrupar-copia" clip-path="url(#clipPath1)">
        <linearGradient id="linearGradient9" x1="-15.017248" y1="2400.919546" x2="559.187004" y2="1819.023855" gradientUnits="userSpaceOnUse">
            <stop offset="1e-05" stop-color="#ffa726" stop-opacity="1"/>
            <stop offset="1" stop-color="#ff5722" stop-opacity="1"/>
        </linearGradient>
        <path id="path46" fill="url(#linearGradient9)" stroke="none" d="M 529.572449 2075.828613 L 529.572449 1789.808105 L 389.111176 1789.808105 C 186.544815 1789.808105 22.336426 1951.847168 22.336426 2151.735596 L 22.336426 2437.756104 L 162.839874 2437.756104 C 365.363739 2437.756104 529.572449 2275.716797 529.572449 2075.828613 Z"/>
        <linearGradient id="linearGradient10" x1="391.637805" y1="2240.580761" x2="1286.491309" y2="1333.741073" gradientUnits="userSpaceOnUse">
            <stop offset="1e-05" stop-color="#ffa726" stop-opacity="1"/>
            <stop offset="1" stop-color="#ff5722" stop-opacity="1"/>
        </linearGradient>
        <path id="path47" fill="url(#linearGradient10)" stroke="none" d="M 1098.745361 2075.828613 L 1098.745361 1148.468384 L 958.239258 1148.468384 C 755.6745 1148.468384 591.465759 1310.50769 591.465759 1510.395752 L 591.465759 2437.756104 L 731.969543 2437.756104 C 934.534363 2437.756104 1098.745361 2275.716797 1098.745361 2075.828613 Z"/>
        <linearGradient id="linearGradient11" x1="819.00076" y1="2100.685268" x2="1993.635976" y2="910.32147" gradientUnits="userSpaceOnUse">
            <stop offset="1e-05" stop-color="#ffa726" stop-opacity="1"/>
            <stop offset="1" stop-color="#ff5722" stop-opacity="1"/>
        </linearGradient>
        <path id="path48" fill="url(#linearGradient11)" stroke="none" d="M 1667.872803 2075.844238 L 1667.872803 588.86792 L 1527.366577 588.86792 C 1324.804077 588.86792 1160.59314 750.90625 1160.59314 950.79834 L 1160.59314 2437.771484 L 1301.099121 2437.771484 C 1503.661621 2437.771484 1667.872803 2275.732422 1667.872803 2075.844238 Z"/>
        <linearGradient id="linearGradient12" x1="1245.287835" y1="1959.715439" x2="2701.824064" y2="483.676541" gradientUnits="userSpaceOnUse">
            <stop offset="1e-05" stop-color="#ffa726" stop-opacity="1"/>
            <stop offset="1" stop-color="#ff5722" stop-opacity="1"/>
        </linearGradient>
        <path id="path49" fill="url(#linearGradient12)" stroke="none" d="M 2237 2017.119019 L 2237 25.00293 L 2096.501709 25.00293 C 1893.931396 25.00293 1729.720459 213.342041 1729.720459 445.638916 L 1729.720459 2437.756104 L 1870.226563 2437.756104 C 2072.796631 2437.756104 2237 2249.415039 2237 2017.119019 Z"/>
    </g>
</svg>
